<?xml version="1.0" encoding="utf-8"?>
<!-- Generator: Adobe Illustrator 27.0.0, SVG Export Plug-In . SVG Version: 6.00 Build 0)  -->
<svg version="1.1" id="レイヤー_1" xmlns="http://www.w3.org/2000/svg" xmlns:xlink="http://www.w3.org/1999/xlink" x="0px"
	 y="0px" viewBox="0 0 33 33" style="enable-background:new 0 0 33 33;" xml:space="preserve">
<style type="text/css">
	.st0{fill:none;stroke:#000000;stroke-width:1.5;stroke-linecap:round;stroke-linejoin:round;}
</style>
<circle class="st0" cx="-36.6" cy="5.7" r="2.9"/>
<path class="st0" d="M-34,23.6h-4.9c-1,0-1.7-0.7-1.7-1.6l1.2-8.5c-2.6-1.4,0.6-3.4,1.6-3.4h2.6c1,0,3.9,1.6,1.5,3.4l1.4,8.5
	C-32.3,22.9-33.1,23.6-34,23.6z"/>
<path class="st0" d="M-37.4,30.2h-0.5c-0.5,0-0.9-0.4-0.9-0.9v-4.7c0-0.5,0.4-0.9,0.9-0.9h0.5c0.5,0,0.9,0.4,0.9,0.9v4.7
	C-36.5,29.8-36.9,30.2-37.4,30.2z"/>
<path class="st0" d="M-34.7,30.2h-0.5c-0.5,0-0.9-0.4-0.9-0.9v-4.8c0-0.5,0.4-0.9,0.9-0.9h0.5c0.5,0,0.9,0.4,0.9,0.9v4.8
	C-33.8,29.8-34.2,30.2-34.7,30.2z"/>
<path class="st0" d="M-42,20.3l0.6,0c0.5,0,0.9-0.2,1-0.5l1-6.2c0.1-0.3-0.9-1.7-0.9-1.7l-2.5,7.8C-42.9,20-42.5,20.2-42,20.3z"/>
<path class="st0" d="M-31.1,20.3l-0.6,0c-0.5,0-0.9-0.2-1-0.5l-1-6.2c-0.1-0.3,0.9-1.7,0.9-1.7l2.5,7.8
	C-30.3,20-30.6,20.2-31.1,20.3z"/>
<path class="st0" d="M20.1,12.8h-9.1c-0.9,0-1.6-0.7-1.6-1.6v-2c0-0.9,1.1-2.1,2.4-2.2c1-0.1,2.9,0.8,3.8,0.8c1.1,0,3-0.9,4-0.8
	c1,0.1,2.2,1.3,2.2,2.1v2.1C21.7,12.1,21,12.8,20.1,12.8z"/>
<path class="st0" d="M20.7,30.3c0,0-2.7,0.6-3.4,0c-1.1-0.9-1.7-5.8-1.7-5.8S15,29.4,14,30.3c-0.7,0.6-3.4,0-3.4,0
	c-1.3,0-2.3-0.4-2.3-1.9l1.2-8.9c0-1.4,1-2.6,2.3-2.6h7.7c1.3,0,2.3,1.2,2.3,2.6l1.2,8.9C23,29.9,21.9,30.3,20.7,30.3z"/>
<line class="st0" x1="11.9" y1="6.5" x2="11.9" y2="2.7"/>
<line class="st0" x1="19.5" y1="6.5" x2="19.5" y2="2.7"/>
</svg>
