<?xml version="1.0" encoding="utf-8"?>
<!-- Generator: Adobe Illustrator 27.0.0, SVG Export Plug-In . SVG Version: 6.00 Build 0)  -->
<svg version="1.1" id="レイヤー_1" xmlns="http://www.w3.org/2000/svg" xmlns:xlink="http://www.w3.org/1999/xlink" x="0px"
	 y="0px" viewBox="0 0 24 24" style="enable-background:new 0 0 24 24;" xml:space="preserve">
<style type="text/css">
	.st0{fill:none;stroke:#000000;stroke-width:1.5;stroke-linecap:round;stroke-linejoin:round;}
</style>
<path class="st0" d="M15.4,9.1H8.6c-0.7,0-1.2-0.5-1.2-1.2V6.4c0-0.7,0.8-1.6,1.8-1.6c0.7,0,2.1,0.6,2.8,0.6c0.8,0,2.2-0.7,3-0.6
	c0.7,0.1,1.6,0.9,1.6,1.6v1.6C16.6,8.6,16.1,9.1,15.4,9.1z"/>
<path class="st0" d="M15.8,22.2c0,0-2,0.4-2.6,0c-0.8-0.7-1.2-4.3-1.2-4.3s-0.4,3.6-1.2,4.3c-0.5,0.4-2.6,0-2.6,0
	c-0.9,0-1.7-0.3-1.7-1.4l0.9-6.7c0-1.1,0.8-1.9,1.7-1.9h5.8c0.9,0,1.7,0.9,1.7,1.9l0.9,6.7C17.5,21.9,16.7,22.2,15.8,22.2z"/>
<line class="st0" x1="9.2" y1="4.4" x2="9.2" y2="1.6"/>
<line class="st0" x1="14.9" y1="4.4" x2="14.9" y2="1.6"/>
</svg>
