<?xml version="1.0" encoding="utf-8"?>
<!-- Generator: Adobe Illustrator 27.0.0, SVG Export Plug-In . SVG Version: 6.00 Build 0)  -->
<svg version="1.1" id="レイヤー_1" xmlns="http://www.w3.org/2000/svg" xmlns:xlink="http://www.w3.org/1999/xlink" x="0px"
	 y="0px" viewBox="0 0 33 33" style="enable-background:new 0 0 33 33;" xml:space="preserve">
<style type="text/css">
	.st0{fill:none;stroke:#000000;stroke-width:1.5;stroke-linecap:round;stroke-linejoin:round;}
</style>
<circle class="st0" cx="16.4" cy="5.7" r="2.9"/>
<path class="st0" d="M19,23.6h-4.9c-1,0-1.7-0.7-1.7-1.6l1.2-8.5c-2.6-1.4,0.6-3.4,1.6-3.4h2.6c1,0,3.9,1.6,1.5,3.4l1.4,8.5
	C20.7,22.9,19.9,23.6,19,23.6z"/>
<path class="st0" d="M15.6,30.2h-0.5c-0.5,0-0.9-0.4-0.9-0.9v-4.7c0-0.5,0.4-0.9,0.9-0.9h0.5c0.5,0,0.9,0.4,0.9,0.9v4.7
	C16.5,29.8,16.1,30.2,15.6,30.2z"/>
<path class="st0" d="M18.3,30.2h-0.5c-0.5,0-0.9-0.4-0.9-0.9v-4.8c0-0.5,0.4-0.9,0.9-0.9h0.5c0.5,0,0.9,0.4,0.9,0.9v4.8
	C19.2,29.8,18.8,30.2,18.3,30.2z"/>
<path class="st0" d="M11,20.3l0.6,0c0.5,0,0.9-0.2,1-0.5l1-6.2c0.1-0.3-0.9-1.7-0.9-1.7l-2.5,7.8C10.1,20,10.5,20.2,11,20.3z"/>
<path class="st0" d="M21.9,20.3l-0.6,0c-0.5,0-0.9-0.2-1-0.5l-1-6.2c-0.1-0.3,0.9-1.7,0.9-1.7l2.5,7.8C22.7,20,22.4,20.2,21.9,20.3z
	"/>
</svg>
