<svg width="33" height="33" viewBox="0 0 33 33" fill="none" xmlns="http://www.w3.org/2000/svg">
<path d="M15.998 9.78857C17.931 9.78857 19.498 8.22157 19.498 6.28857C19.498 4.35558 17.931 2.78857 15.998 2.78857C14.0651 2.78857 12.498 4.35558 12.498 6.28857C12.498 8.22157 14.0651 9.78857 15.998 9.78857Z" stroke="black" stroke-width="2" stroke-linecap="round" stroke-linejoin="round"/>
<path d="M19.2482 17.6261L23.5982 21.0011C23.8858 21.2404 24.2525 21.3637 24.6263 21.3466C25 21.3296 25.354 21.1734 25.6185 20.9089C25.8831 20.6443 26.0393 20.2904 26.0563 19.9166C26.0734 19.5428 25.9501 19.1762 25.7107 18.8886L20.7607 12.5261C20.5301 12.2931 20.2556 12.1079 19.9531 11.9814C19.6506 11.8548 19.3261 11.7893 18.9982 11.7886H12.9982C12.3328 11.7921 11.6953 12.057 11.2232 12.5261L6.27325 18.8886C6.01551 19.1747 5.87767 19.5489 5.88826 19.9338C5.89886 20.3188 6.05708 20.6849 6.33017 20.9564C6.60326 21.2278 6.97029 21.3839 7.35527 21.3922C7.74024 21.4005 8.11368 21.2605 8.39825 21.0011L12.7482 17.6261L9.27325 28.5761C9.18953 28.755 9.14187 28.9487 9.133 29.146C9.12413 29.3434 9.15421 29.5405 9.22153 29.7262C9.28886 29.9119 9.3921 30.0826 9.52537 30.2284C9.65864 30.3742 9.81932 30.4924 9.99825 30.5761C10.1772 30.6598 10.3708 30.7074 10.5682 30.7163C10.7655 30.7252 10.9627 30.6951 11.1484 30.6278C11.3341 30.5605 11.5048 30.4572 11.6506 30.324C11.7964 30.1907 11.9145 30.03 11.9982 29.8511L15.9982 23.5511L19.9982 29.8511C20.0764 30.0378 20.1915 30.2068 20.3367 30.3479C20.4819 30.4889 20.6541 30.5992 20.843 30.6719C21.0319 30.7446 21.2336 30.7784 21.4359 30.7711C21.6382 30.7638 21.8369 30.7157 22.0201 30.6296C22.2033 30.5435 22.3672 30.4212 22.5018 30.2701C22.6365 30.1189 22.7392 29.9421 22.8037 29.7503C22.8683 29.5584 22.8933 29.3554 22.8773 29.1537C22.8613 28.9519 22.8047 28.7554 22.7107 28.5761L19.2482 17.6261Z" stroke="black" stroke-width="2" stroke-linecap="round" stroke-linejoin="round"/>
</svg>
