<?xml version="1.0" encoding="utf-8"?>
<!-- Generator: Adobe Illustrator 27.0.0, SVG Export Plug-In . SVG Version: 6.00 Build 0)  -->
<svg version="1.1" id="レイヤー_1" xmlns="http://www.w3.org/2000/svg" xmlns:xlink="http://www.w3.org/1999/xlink" x="0px"
	 y="0px" viewBox="0 0 14 14" style="enable-background:new 0 0 14 14;" xml:space="preserve">
<style type="text/css">
	.st0{fill:none;stroke:#666666;stroke-width:0.75;stroke-linecap:round;stroke-linejoin:round;}
</style>
<path class="st0" d="M5.2,11.8H2.6c-0.1,0-0.2,0-0.3-0.1c-0.1-0.1-0.1-0.2-0.1-0.3V8.9c0-0.1,0-0.1,0-0.2c0-0.1,0.1-0.1,0.1-0.1
	l6.6-6.6C8.9,2,9,2,9,2c0.1,0,0.1,0,0.2,0c0.1,0,0.1,0,0.2,0C9.4,2,9.5,2,9.5,2.1l2.4,2.4c0,0,0.1,0.1,0.1,0.1c0,0.1,0,0.1,0,0.2
	c0,0.1,0,0.1,0,0.2C12,5,12,5.1,11.9,5.1L5.2,11.8z"/>
<path class="st0" d="M7.4,3.5l3.1,3.1"/>
<path class="st0" d="M11.8,11.8H5.2l-3-3"/>
<path class="st0" d="M9,5l-5.2,5.2"/>
</svg>
