<svg width="33" height="33" viewBox="0 0 33 33" fill="none" xmlns="http://www.w3.org/2000/svg">
<path d="M16.0107 28.7886C22.6382 28.7886 28.0107 23.416 28.0107 16.7886C28.0107 10.1612 22.6382 4.78857 16.0107 4.78857C9.38333 4.78857 4.01074 10.1612 4.01074 16.7886C4.01074 23.416 9.38333 28.7886 16.0107 28.7886Z" stroke="black" stroke-width="2" stroke-miterlimit="10"/>
<path d="M11.5107 15.7886C12.3392 15.7886 13.0107 15.117 13.0107 14.2886C13.0107 13.4601 12.3392 12.7886 11.5107 12.7886C10.6823 12.7886 10.0107 13.4601 10.0107 14.2886C10.0107 15.117 10.6823 15.7886 11.5107 15.7886Z" fill="black"/>
<path d="M20.5107 15.7886C21.3392 15.7886 22.0107 15.117 22.0107 14.2886C22.0107 13.4601 21.3392 12.7886 20.5107 12.7886C19.6823 12.7886 19.0107 13.4601 19.0107 14.2886C19.0107 15.117 19.6823 15.7886 20.5107 15.7886Z" fill="black"/>
</svg>
