<svg width="33" height="33" viewBox="0 0 33 33" fill="none" xmlns="http://www.w3.org/2000/svg">
<path d="M16.0107 28.7886C22.6382 28.7886 28.0107 23.416 28.0107 16.7886C28.0107 10.1612 22.6382 4.78857 16.0107 4.78857C9.38333 4.78857 4.01074 10.1612 4.01074 16.7886C4.01074 23.416 9.38333 28.7886 16.0107 28.7886Z" stroke="black" stroke-width="2" stroke-linecap="round" stroke-linejoin="round"/>
<path d="M11.5107 15.7886C12.3392 15.7886 13.0107 15.117 13.0107 14.2886C13.0107 13.4601 12.3392 12.7886 11.5107 12.7886C10.6823 12.7886 10.0107 13.4601 10.0107 14.2886C10.0107 15.117 10.6823 15.7886 11.5107 15.7886Z" fill="black"/>
<path d="M19.0107 14.2886H22.0107" stroke="black" stroke-width="2" stroke-linecap="round" stroke-linejoin="round"/>
<path d="M21.2105 19.7886C20.6819 20.6993 19.9233 21.4553 19.0108 21.9807C18.0982 22.5062 17.0636 22.7828 16.0105 22.7828C14.9575 22.7828 13.9229 22.5062 13.0103 21.9807C12.0977 21.4553 11.3392 20.6993 10.8105 19.7886" stroke="black" stroke-width="2" stroke-linecap="round" stroke-linejoin="round"/>
</svg>
