<svg width="33" height="33" viewBox="0 0 33 33" fill="none" xmlns="http://www.w3.org/2000/svg">
<path d="M19.5357 28.2636C18.3929 28.6109 17.2052 28.7878 16.0107 28.7886C13.6374 28.7886 11.3173 28.0848 9.34391 26.7662C7.37052 25.4476 5.83244 23.5735 4.92419 21.3808C4.01594 19.1881 3.7783 16.7753 4.24132 14.4475C4.70435 12.1197 5.84724 9.98153 7.52547 8.3033C9.2037 6.62507 11.3419 5.48218 13.6697 5.01916C15.9974 4.55613 18.4102 4.79377 20.6029 5.70203C22.7957 6.61028 24.6698 8.14835 25.9884 10.1217C27.307 12.0951 28.0107 14.4152 28.0107 16.7886C28.01 17.983 27.8331 19.1708 27.4857 20.3136L19.5357 28.2636Z" stroke="black" stroke-width="2" stroke-linecap="round" stroke-linejoin="round"/>
<path d="M11.5107 15.7886C12.3392 15.7886 13.0107 15.117 13.0107 14.2886C13.0107 13.4601 12.3392 12.7886 11.5107 12.7886C10.6823 12.7886 10.0107 13.4601 10.0107 14.2886C10.0107 15.117 10.6823 15.7886 11.5107 15.7886Z" fill="black"/>
<path d="M20.5107 15.7886C21.3392 15.7886 22.0107 15.117 22.0107 14.2886C22.0107 13.4601 21.3392 12.7886 20.5107 12.7886C19.6823 12.7886 19.0107 13.4601 19.0107 14.2886C19.0107 15.117 19.6823 15.7886 20.5107 15.7886Z" fill="black"/>
<path d="M21.2105 19.7886C20.6819 20.6993 19.9233 21.4553 19.0108 21.9807C18.0982 22.5062 17.0636 22.7828 16.0105 22.7828C14.9575 22.7828 13.9229 22.5062 13.0103 21.9807C12.0977 21.4553 11.3392 20.6993 10.8105 19.7886" stroke="black" stroke-width="2" stroke-linecap="round" stroke-linejoin="round"/>
</svg>
